HIERARCHY
ROOT Hips
{
	OFFSET	0.000000	0.000000	0.000000
	CHANNELS 6 Xposition Yposition Zposition Zrotation Xrotation Yrotation
	JOINT LeftHip
	{
		OFFSET	4.740440	-3.195970	-0.322709
		CHANNELS 3 Zrotation Xrotation Yrotation
		JOINT LeftKnee
		{
			OFFSET	-1.605680	-15.592300	1.005510
			CHANNELS 3 Zrotation Xrotation Yrotation
			JOINT LeftAnkle
			{
				OFFSET	-0.632401	-16.421000	-1.413730
				CHANNELS 3 Zrotation Xrotation Yrotation
				End Site
				{
					OFFSET	0.008423	-2.933000	-1.684880
				}
			}
		}
	}
	JOINT RightHip
	{
		OFFSET	-4.740440	-3.195970	-0.322709
		CHANNELS 3 Zrotation Xrotation Yrotation
		JOINT RightKnee
		{
			OFFSET	1.605680	-15.592300	1.005510
			CHANNELS 3 Zrotation Xrotation Yrotation
			JOINT RightAnkle
			{
				OFFSET	0.632401	-16.421000	-1.413730
				CHANNELS 3 Zrotation Xrotation Yrotation
				End Site
				{
					OFFSET	-0.008423	-2.933000	-1.684880
				}
			}
		}
	}
	JOINT Chest
	{
		OFFSET	0.000000	3.468200	0.078401
		CHANNELS 3 Zrotation Xrotation Yrotation
		JOINT LeftCollar
		{
			OFFSET	3.857650	15.070700	-0.011583
			CHANNELS 3 Zrotation Xrotation Yrotation
			JOINT LeftShoulder
			{
				OFFSET	3.979720	-1.940530	-0.165223
				CHANNELS 3 Zrotation Xrotation Yrotation
				JOINT LeftElbow
				{
					OFFSET	0.615844	-10.986600	-0.673886
					CHANNELS 3 Zrotation Xrotation Yrotation
					JOINT LeftWrist
					{
						OFFSET	0.826843	-10.854500	1.034220
						CHANNELS 3 Zrotation Xrotation Yrotation
						End Site
						{
							OFFSET	-1.679080	-8.456540	0.936217
						}
					}
				}
			}
		}
		JOINT RightCollar
		{
			OFFSET	-3.857650	15.070700	-0.011583
			CHANNELS 3 Zrotation Xrotation Yrotation
			JOINT RightShoulder
			{
				OFFSET	-3.979720	-1.940530	-0.165223
				CHANNELS 3 Zrotation Xrotation Yrotation
				JOINT RightElbow
				{
					OFFSET	-0.615845	-10.986600	-0.673886
					CHANNELS 3 Zrotation Xrotation Yrotation
					JOINT RightWrist
					{
						OFFSET	-0.826843	-10.854500	1.034220
						CHANNELS 3 Zrotation Xrotation Yrotation
						End Site
						{
							OFFSET	1.679080	-8.456540	0.936217
						}
					}
				}
			}
		}
		JOINT Neck
		{
			OFFSET	0.000000	15.101400	0.055730
			CHANNELS 3 Zrotation Xrotation Yrotation
			JOINT Head
			{
				OFFSET	0.000000	4.185120	1.488260
				CHANNELS 3 Zrotation Xrotation Yrotation
				End Site
				{
					OFFSET	0.000000	7.773420	-0.106016
				}
			}
		}
	}
}
MOTION
Frames:     20
Frame Time: 0.016667
142.451279	36.817799	137.940323	-17.740086	-6.086831	-80.974205	-11.023899	6.390535	-2.715695	0.224609	12.509569	5.678298	8.141159	-3.420945	5.500239	-9.277638	-0.253765	-20.599396	21.524843	16.309227	-22.143059	38.636158	11.325703	17.553328	-11.975586	-0.658871	12.239896	5.677379	1.042421	-17.058195	-4.036418	-31.680040	-25.619741	-96.496262	-4.521466	-65.002144	27.014488	-39.443375	-38.864338	1.610362	1.243363	0.270977	-4.407917	-32.464687	26.554733	-88.117867	-124.702415	-78.874359	41.779373	-16.380974	16.597500	3.843107	15.489224	-2.216951	6.291747	9.510602	-19.778643	
142.451599	36.817562	137.940964	-17.740086	-6.086831	-80.974205	-11.025836	6.388423	-2.726097	0.224076	12.511812	5.689165	8.141159	-3.420945	5.500239	-9.265281	-0.245475	-20.642906	21.503023	16.294027	-22.097195	38.616703	11.310926	17.551985	-11.975586	-0.658871	12.239896	5.676909	1.043289	-17.057320	-4.031177	-31.665590	-25.619963	-96.494591	-4.520755	-64.994507	27.004082	-39.449226	-38.886803	1.610362	1.243363	0.270977	-4.408564	-32.453823	26.554390	-88.107857	-124.702728	-78.856865	41.780384	-16.394079	16.596397	3.843107	15.489224	-2.216951	6.235585	9.533817	-19.710287	
142.455902	36.817379	137.943558	-17.743990	-6.068471	-81.006264	-11.017679	6.375612	-2.732689	0.222136	12.519993	5.728898	8.141159	-3.420945	5.500239	-9.240116	-0.235021	-20.676420	21.485798	16.243515	-22.070606	38.568928	11.330393	17.566429	-11.935416	-0.633660	12.252515	5.649389	1.019614	-17.036097	-4.017694	-31.625648	-25.617765	-96.490799	-4.520573	-65.024200	27.015118	-39.436230	-38.896229	1.582805	1.218243	0.290468	-4.415095	-32.422077	26.550999	-88.072571	-124.703659	-78.802681	41.783794	-16.427366	16.598242	3.787636	15.469950	-2.178154	6.214196	9.547024	-19.666374	
142.457565	36.817333	137.944519	-17.745537	-6.061236	-81.018898	-11.014249	6.370806	-2.734139	0.221425	12.522971	5.743364	8.141159	-3.420945	5.500239	-9.245649	-0.216769	-20.729136	21.486292	16.235207	-22.018562	38.561001	11.354212	17.568205	-11.919251	-0.623177	12.257200	5.638101	1.009863	-17.027399	-4.014003	-31.614733	-25.617146	-96.489662	-4.520238	-65.024040	27.013603	-39.435043	-38.910728	1.577375	1.209392	0.291552	-4.418844	-32.413891	26.557808	-88.061272	-124.703941	-78.785332	41.784843	-16.437632	16.598793	3.773022	15.459637	-2.168557	6.181159	9.561369	-19.625351	
142.463318	36.817333	137.947510	-17.751123	-6.035179	-81.064445	-11.000516	6.355059	-2.731904	0.219264	12.532072	5.787700	8.141159	-3.420945	5.500239	-9.250048	-0.203333	-20.719519	21.510395	16.242025	-22.045542	38.552643	11.394120	17.619102	-11.865637	-0.592129	12.278146	5.606316	0.974016	-17.006798	-4.012261	-31.598593	-25.619421	-96.487244	-4.508552	-65.035820	27.056221	-39.422153	-38.912613	1.570603	1.184972	0.282892	-4.428782	-32.412876	26.594534	-88.038338	-124.663506	-78.760948	41.798218	-16.441792	16.600513	3.731724	15.428866	-2.141906	6.166028	9.567580	-19.606943	
142.465317	36.817345	137.948532	-17.753078	-6.026095	-81.080315	-10.995635	6.349666	-2.730701	0.218518	12.535152	5.802714	8.141159	-3.420945	5.500239	-9.264975	-0.194914	-20.712069	21.533949	16.244823	-22.055971	38.550423	11.405288	17.634539	-11.847690	-0.582415	12.286119	5.599131	0.956532	-17.006386	-4.015639	-31.593607	-25.623583	-96.485535	-4.506101	-65.036064	27.080040	-39.420261	-38.911354	1.574259	1.178699	0.273227	-4.433293	-32.418129	26.604809	-88.031342	-124.646935	-78.757545	41.806431	-16.443550	16.601540	3.718495	15.419038	-2.133388	6.166028	9.567580	-19.606943	
142.471313	36.817535	137.951263	-17.759178	-5.997770	-81.129837	-10.979092	6.334326	-2.719750	0.216582	12.543233	5.842030	8.141159	-3.420945	5.500239	-9.257357	-0.191955	-20.670746	21.554251	16.248198	-22.083397	38.544426	11.378025	17.702530	-11.787942	-0.546644	12.307708	5.576741	0.887796	-17.011677	-4.029076	-31.571253	-25.634256	-96.478859	-4.480672	-65.037575	27.089972	-39.401104	-38.911072	1.583677	1.155636	0.242834	-4.439454	-32.434593	26.630211	-88.026169	-124.631462	-78.755005	41.804256	-16.450077	16.602541	3.691454	15.389231	-2.116804	6.145368	9.562696	-19.597868	
142.473129	36.817623	137.952026	-17.761074	-5.988997	-81.145172	-10.973722	6.329865	-2.715010	0.216059	12.545444	5.852799	8.141159	-3.420945	5.500239	-9.248348	-0.193884	-20.655727	21.554251	16.248198	-22.083397	38.538975	11.364366	17.707973	-11.771331	-0.538282	12.316037	5.579164	0.854532	-17.029745	-4.038012	-31.555017	-25.638987	-96.474434	-4.465645	-65.038628	27.108685	-39.397266	-38.914871	1.591582	1.151376	0.228733	-4.444076	-32.440948	26.628103	-88.019188	-124.625298	-78.752174	41.813454	-16.452377	16.603735	3.692695	15.383910	-2.118178	6.121978	9.563659	-19.579676	
142.476776	36.818363	137.952438	-17.765652	-5.967904	-81.182014	-10.956425	6.323885	-2.680262	0.215978	12.545756	5.854284	8.141159	-3.420945	5.500239	-9.244299	-0.184662	-20.651932	21.565443	16.255182	-22.076607	38.529411	11.367130	17.734657	-11.743377	-0.535635	12.346598	5.584719	0.821011	-17.051165	-4.057781	-31.541185	-25.698019	-96.463692	-4.511056	-65.038063	27.065731	-39.357632	-38.934410	1.633409	1.157210	0.175259	-4.461786	-32.459427	26.615488	-87.993721	-124.610764	-78.742073	41.825108	-16.460632	16.606226	3.733598	15.390028	-2.146727	6.060939	9.554893	-19.545452	
142.477219	36.818661	137.952057	-17.766527	-5.964095	-81.188675	-10.951921	6.324325	-2.666681	0.216328	12.544254	5.846929	8.141159	-3.420945	5.500239	-9.251973	-0.180026	-20.650959	21.576225	16.256880	-22.082884	38.528008	11.374352	17.744572	-11.739419	-0.536701	12.353087	5.590610	0.808872	-17.063597	-4.059632	-31.532549	-25.685972	-96.463310	-4.511385	-65.037941	27.038334	-39.339378	-38.947330	1.649651	1.161441	0.156000	-4.467562	-32.465458	26.610912	-87.987419	-124.613747	-78.739914	41.819538	-16.463646	16.606298	3.749829	15.394201	-2.157930	6.044219	9.550885	-19.537991	
142.476624	36.819096	137.950851	-17.766527	-5.964095	-81.188675	-10.948283	6.328274	-2.647171	0.217323	12.540065	5.826549	8.141159	-3.420945	5.500239	-9.272225	-0.171335	-20.657713	21.596321	16.258427	-22.076021	38.528008	11.374352	17.744572	-11.739419	-0.536701	12.353087	5.591698	0.806938	-17.065563	-4.059980	-31.531162	-25.683559	-96.463310	-4.511385	-65.037941	26.955687	-39.286503	-38.991020	1.668095	1.166332	0.133955	-4.476070	-32.472977	26.565647	-87.986275	-124.679138	-78.742882	41.769211	-16.469770	16.603039	3.743821	15.397835	-2.173759	6.055689	9.545850	-19.530413	
142.476471	36.819210	137.950546	-17.766527	-5.964095	-81.188675	-10.947352	6.329278	-2.642215	0.217569	12.539000	5.821371	8.141159	-3.420945	5.500239	-9.272225	-0.171335	-20.657713	21.596321	16.258427	-22.076021	38.520535	11.378895	17.751404	-11.739419	-0.536701	12.353087	5.596226	0.797622	-17.075115	-4.060908	-31.524275	-25.671833	-96.463188	-4.496197	-65.038452	26.950060	-39.277897	-38.998306	1.668095	1.166332	0.133955	-4.477089	-32.473259	26.545490	-87.986191	-124.698723	-78.743874	41.769211	-16.469770	16.603039	3.743821	15.397835	-2.173759	6.084291	9.534142	-19.565178	
142.476440	36.819225	137.950500	-17.766527	-5.964095	-81.188675	-10.947224	6.329423	-2.641529	0.217604	12.538847	5.820654	8.141159	-3.420945	5.500239	-9.275531	-0.172258	-20.648890	21.601921	16.256569	-22.076033	38.489094	11.393095	17.773638	-11.739419	-0.536701	12.353087	5.602441	0.785350	-17.087692	-4.030923	-31.529642	-25.698124	-96.493866	-4.537013	-65.044296	26.895718	-39.237389	-39.031834	1.668095	1.166332	0.133955	-4.477369	-32.473293	26.542757	-87.985985	-124.701317	-78.743896	41.769211	-16.469770	16.603039	3.759798	15.401983	-2.184556	6.131246	9.504128	-19.635101	
142.475616	36.819046	137.950424	-17.765495	-5.968960	-81.180168	-10.951267	6.330751	-2.649885	0.217604	12.538847	5.820654	8.141159	-3.420945	5.500239	-9.284967	-0.172450	-20.645399	21.610659	16.253040	-22.046160	38.480896	11.375209	17.750792	-11.744461	-0.535259	12.344800	5.602441	0.785350	-17.087692	-4.009163	-31.539093	-25.721598	-96.514832	-4.555473	-65.048325	26.890902	-39.228935	-39.038956	1.668095	1.166332	0.133955	-4.477988	-32.473503	26.527691	-87.986099	-124.716049	-78.744736	41.752369	-16.471708	16.601942	3.774577	15.406010	-2.194721	6.148067	9.487082	-19.667242	
142.473282	36.818554	137.950211	-17.762478	-5.982587	-81.156319	-10.962611	6.334371	-2.673298	0.217604	12.538847	5.820654	8.141159	-3.420945	5.500239	-9.307421	-0.177582	-20.622849	21.629572	16.245756	-22.090321	38.465405	11.382088	17.761904	-11.771626	-0.550071	12.332897	5.628054	0.782030	-17.118698	-3.997510	-31.530554	-25.700573	-96.527000	-4.521265	-65.051643	26.912870	-39.229069	-39.039368	1.704399	1.186510	0.099240	-4.484793	-32.480553	26.525331	-87.982079	-124.729416	-78.743927	41.698402	-16.505426	16.599998	3.827764	15.429650	-2.230332	6.228926	9.431095	-19.791723	
142.470642	36.817993	137.949982	-17.759031	-5.997972	-81.129395	-10.975423	6.338422	-2.699732	0.217604	12.538847	5.820654	8.141159	-3.420945	5.500239	-9.316977	-0.183145	-20.621309	21.630131	16.238792	-22.072491	38.471046	11.353830	17.722860	-11.795982	-0.557692	12.313965	5.642602	0.783889	-17.134544	-3.995152	-31.524038	-25.673660	-96.528923	-4.493464	-65.052391	26.925552	-39.233353	-39.035984	1.724037	1.198548	0.081229	-4.478379	-32.482414	26.535681	-87.988533	-124.719772	-78.745865	41.688358	-16.532045	16.600863	3.851264	15.441922	-2.245862	6.254904	9.413126	-19.831661	
142.467865	36.817398	137.949738	-17.755384	-6.014106	-81.101158	-10.988862	6.342662	-2.727456	0.217604	12.538847	5.820654	8.141159	-3.420945	5.500239	-9.342923	-0.193804	-20.576656	21.656704	16.225248	-22.103193	38.463661	11.334134	17.696669	-11.839789	-0.593641	12.321849	5.678322	0.804051	-17.162836	-4.001622	-31.512819	-25.670685	-96.530556	-4.480752	-65.052689	26.893297	-39.213238	-39.043842	1.776556	1.241817	0.041804	-4.472091	-32.489983	26.556267	-87.994492	-124.688095	-78.741257	41.714325	-16.548933	16.599522	3.930111	15.482227	-2.308020	6.319299	9.363485	-19.936342	
142.465179	36.816830	137.949509	-17.751816	-6.029731	-81.073799	-11.001880	6.346742	-2.754315	0.217604	12.538847	5.820654	8.141159	-3.420945	5.500239	-9.347689	-0.200634	-20.577715	21.651726	16.218340	-22.077417	38.467754	11.303635	17.654966	-11.880029	-0.623853	12.317945	5.707917	0.828749	-17.180223	-4.005391	-31.510088	-25.679281	-96.530685	-4.480678	-65.052719	26.852543	-39.187325	-39.065079	1.811466	1.273667	0.021797	-4.457691	-32.490620	26.561871	-88.004547	-124.689445	-78.739357	41.715446	-16.563217	16.595560	3.989874	15.515246	-2.349018	6.337187	9.340878	-19.975521	
142.463959	36.816391	137.949219	-17.748428	-6.044595	-81.047783	-11.014262	6.350642	-2.779853	0.217608	12.534254	5.821649	8.141522	-3.416561	5.498603	-9.341408	-0.218157	-20.548391	21.642105	16.206490	-22.080122	38.414600	11.306985	17.663717	-11.897246	-0.622010	12.294134	5.710144	0.813570	-17.164194	-4.020560	-31.492603	-25.698719	-96.530685	-4.480678	-65.052719	26.851522	-39.187267	-39.053627	1.814213	1.276158	0.020733	-4.438470	-32.488342	26.571484	-87.991890	-124.692375	-78.720177	41.714077	-16.555593	16.582998	4.012619	15.522496	-2.364574	6.397279	9.301901	-20.064438	
142.464828	36.816128	137.948868	-17.745230	-6.058603	-81.023308	-11.025937	6.354312	-2.803870	0.217597	12.522985	5.824199	8.142433	-3.405826	5.494485	-9.355829	-0.215185	-20.572357	21.643702	16.204351	-22.034920	38.400818	11.291246	17.643555	-11.911837	-0.617973	12.270322	5.710151	0.813013	-17.163649	-4.021040	-31.492035	-25.699310	-96.530685	-4.480678	-65.052719	26.852242	-39.188412	-39.040257	1.814213	1.276158	0.020733	-4.419163	-32.485680	26.581387	-88.004211	-124.693451	-78.720688	41.713440	-16.552065	16.579296	4.020977	15.524721	-2.370353	6.388698	9.299758	-20.060583	
